<svg width="35" height="35" viewBox="0 0 35 35" fill="none" xmlns="http://www.w3.org/2000/svg">
<path d="M17.5002 2.69086C14.8547 2.6937 12.2556 3.38497 9.95822 4.69669C7.66089 6.00842 5.74448 7.89545 4.39741 10.1722C3.05035 12.449 2.319 15.0372 2.27529 17.6823C2.23157 20.3274 2.87699 22.9383 4.14808 25.2584L2.271 33.1492L10.1618 31.2721C12.197 32.3886 14.4606 33.025 16.7794 33.1328C19.0982 33.2405 21.411 32.8168 23.541 31.8939C25.671 30.971 27.5618 29.5734 29.069 27.8079C30.5762 26.0424 31.6598 23.9557 32.2371 21.7073C32.8144 19.4589 32.8701 17.1083 32.3998 14.8351C31.9296 12.5619 30.9459 10.4262 29.524 8.59138C28.1021 6.75652 26.2795 5.27101 24.1956 4.24835C22.1116 3.22569 19.8215 2.69296 17.5002 2.69086ZM9.88558 9.61127H14.0364C14.2243 9.61127 14.4044 9.6859 14.5373 9.81874C14.6701 9.95158 14.7447 10.1317 14.7447 10.3196C14.7215 11.2642 14.8802 12.2045 15.2122 13.0892C15.3552 13.3853 15.3867 13.7231 15.3008 14.0405C15.2149 14.358 15.0175 14.6338 14.7447 14.8175L13.2927 16.2342C13.9365 17.4915 14.7784 18.6371 15.786 19.6271C16.768 20.6511 17.9089 21.5098 19.1647 22.17L20.5814 20.7179C21.2897 20.0096 21.6156 20.0096 22.3097 20.2504C23.1944 20.5825 24.1347 20.7412 25.0793 20.7179C25.2644 20.7266 25.4396 20.804 25.5706 20.935C25.7016 21.066 25.779 21.2412 25.7877 21.4263V25.5771C25.779 25.7622 25.7016 25.9374 25.5706 26.0684C25.4396 26.1994 25.2644 26.2768 25.0793 26.2854C20.9126 26.1039 16.963 24.3766 14.001 21.4404C11.0603 18.4816 9.33211 14.5301 9.156 10.3621C9.15768 10.1671 9.23444 9.98032 9.37032 9.84048C9.5062 9.70065 9.69074 9.61856 9.88558 9.61127Z" stroke="white" stroke-width="1.25" stroke-linecap="round" stroke-linejoin="round"/>
</svg>
